<svg width="26" height="26" viewBox="0 0 26 26" fill="none" xmlns="http://www.w3.org/2000/svg">
<g clip-path="url(#clip0_182_314)">
<path d="M12.9998 2.1665C8.80734 2.1665 5.4165 5.55734 5.4165 9.74984C5.4165 11.6348 5.95817 13.4007 6.944 14.9932C7.97317 16.6615 9.32734 18.0915 10.3673 19.7598C10.8765 20.5723 11.2448 21.3307 11.6348 22.2082C11.9165 22.804 12.144 23.8332 12.9998 23.8332C13.8557 23.8332 14.0832 22.804 14.354 22.2082C14.7548 21.3307 15.1123 20.5723 15.6215 19.7598C16.6615 18.1023 18.0157 16.6723 19.0448 14.9932C20.0415 13.4007 20.5832 11.6348 20.5832 9.74984C20.5832 5.55734 17.1923 2.1665 12.9998 2.1665ZM12.9998 12.729C11.5048 12.729 10.2915 11.5157 10.2915 10.0207C10.2915 8.52567 11.5048 7.31234 12.9998 7.31234C14.4948 7.31234 15.7082 8.52567 15.7082 10.0207C15.7082 11.5157 14.4948 12.729 12.9998 12.729Z" fill="#16BECB"/>
</g>
<defs>
<clipPath id="clip0_182_314">
<rect width="26" height="26" fill="white"/>
</clipPath>
</defs>
</svg>
