<svg width="29" height="26" viewBox="0 0 29 26" fill="none" xmlns="http://www.w3.org/2000/svg">
<path d="M20.6875 0.125C18.295 0.125 15.9987 1.23875 14.5 2.99875C13.0013 1.23875 10.705 0.125 8.3125 0.125C4.0775 0.125 0.75 3.4525 0.75 7.6875C0.75 12.885 5.425 17.12 12.5063 23.555L14.5 25.3563L16.4937 23.5413C23.575 17.12 28.25 12.885 28.25 7.6875C28.25 3.4525 24.9225 0.125 20.6875 0.125ZM14.6375 21.5062L14.5 21.6437L14.3625 21.5062C7.8175 15.58 3.5 11.6613 3.5 7.6875C3.5 4.9375 5.5625 2.875 8.3125 2.875C10.43 2.875 12.4925 4.23625 13.2212 6.12H15.7925C16.5075 4.23625 18.57 2.875 20.6875 2.875C23.4375 2.875 25.5 4.9375 25.5 7.6875C25.5 11.6613 21.1825 15.58 14.6375 21.5062Z" fill="white"/>
</svg>
